<?xml version="1.0" encoding="UTF-8"?>
<svg xmlns="http://www.w3.org/2000/svg" xmlns:xlink="http://www.w3.org/1999/xlink" width="337.5pt" height="243.749992pt" viewBox="0 0 337.5 243.749992" version="1.2">
<defs>
<clipPath id="clip1">
  <path d="M 142 7 L 331.660156 7 L 331.660156 237 L 142 237 Z M 142 7 "/>
</clipPath>
<clipPath id="clip2">
  <path d="M 6.160156 96 L 331.660156 96 L 331.660156 148 L 6.160156 148 Z M 6.160156 96 "/>
</clipPath>
</defs>
<g id="surface1">
<g clip-path="url(#clip1)" clip-rule="nonzero">
<path style=" stroke:none;fill-rule:nonzero;fill:rgb(80.778503%,83.139038%,85.488892%);fill-opacity:1;" d="M 153.832031 53.949219 L 258.960938 121.726562 L 153.832031 189.503906 C 142.011719 197.125 138.617188 212.867188 146.257812 224.660156 C 153.898438 236.453125 169.671875 239.835938 181.496094 232.214844 L 319.753906 143.082031 C 327.050781 138.375 331.40625 130.394531 331.40625 121.726562 C 331.40625 113.054688 327.050781 105.078125 319.753906 100.371094 L 181.496094 11.238281 C 169.671875 3.617188 153.898438 7 146.257812 18.792969 C 138.617188 30.589844 142.011719 46.328125 153.832031 53.949219 "/>
</g>
<g clip-path="url(#clip2)" clip-rule="nonzero">
<path style=" stroke:none;fill-rule:nonzero;fill:rgb(80.778503%,83.139038%,85.488892%);fill-opacity:1;" d="M 305.917969 96.300781 L 31.8125 96.300781 C 17.734375 96.300781 6.324219 107.683594 6.324219 121.726562 C 6.324219 135.769531 17.734375 147.152344 31.8125 147.152344 L 305.917969 147.152344 C 319.996094 147.152344 331.40625 135.769531 331.40625 121.726562 C 331.40625 107.683594 319.996094 96.300781 305.917969 96.300781 "/>
</g>
</g>
</svg>
