<?xml version="1.0" encoding="UTF-8"?>
<svg xmlns="http://www.w3.org/2000/svg" xmlns:xlink="http://www.w3.org/1999/xlink" width="600pt" height="449.999984pt" viewBox="0 0 600 449.999984" version="1.2">
<defs>
<clipPath id="clip1">
  <path d="M 31 21.347656 L 587 21.347656 L 587 426 L 31 426 Z M 31 21.347656 "/>
</clipPath>
</defs>
<g id="surface1">
<g clip-path="url(#clip1)" clip-rule="nonzero">
<path style=" stroke:none;fill-rule:nonzero;fill:rgb(12.939453%,12.939453%,12.548828%);fill-opacity:1;" d="M 31.367188 383.140625 L 31.367188 126.609375 C 31.367188 103.023438 50.507812 84 74.101562 84 L 185.832031 84 L 225.449219 24.707031 C 227.453125 21.703125 230.789062 19.921875 234.351562 19.921875 L 383.917969 19.921875 C 387.480469 19.921875 390.820312 21.703125 392.824219 24.707031 L 432.441406 84 L 544.171875 84 C 567.765625 84 586.90625 103.023438 586.90625 126.609375 L 586.90625 383.140625 C 586.90625 406.726562 567.765625 425.75 544.058594 425.75 L 74.210938 425.75 C 50.617188 425.75 31.367188 406.835938 31.367188 383.140625 Z M 74.101562 105.359375 C 62.304688 105.359375 52.734375 114.816406 52.734375 126.609375 L 52.734375 383.140625 C 52.734375 394.933594 62.304688 404.390625 74.210938 404.390625 L 544.058594 404.390625 C 555.96875 404.390625 565.539062 394.933594 565.539062 383.140625 L 565.539062 126.609375 C 565.539062 114.816406 555.96875 105.359375 544.171875 105.359375 L 426.652344 105.359375 C 423.09375 105.359375 419.753906 103.582031 417.75 100.578125 L 378.132812 41.28125 L 240.136719 41.28125 L 200.519531 100.578125 C 198.515625 103.582031 195.179688 105.359375 191.617188 105.359375 Z M 426.652344 244.195312 C 426.652344 309.050781 374.015625 361.671875 309.136719 361.671875 C 244.257812 361.671875 191.617188 309.050781 191.617188 244.195312 C 191.617188 179.339844 244.257812 126.71875 309.136719 126.71875 C 374.015625 126.71875 426.652344 179.339844 426.652344 244.195312 Z M 212.984375 244.195312 C 212.984375 297.261719 256.050781 340.3125 309.136719 340.3125 C 362.21875 340.3125 405.285156 297.261719 405.285156 244.195312 C 405.285156 191.132812 362.21875 148.078125 309.136719 148.078125 C 256.050781 148.078125 212.984375 191.132812 212.984375 244.195312 Z M 480.070312 190.796875 C 468.273438 190.796875 458.703125 181.230469 458.703125 169.4375 C 458.703125 157.644531 468.273438 148.078125 480.070312 148.078125 C 491.867188 148.078125 501.4375 157.644531 501.4375 169.4375 C 501.4375 181.230469 491.867188 190.796875 480.070312 190.796875 Z M 480.070312 190.796875 "/>
</g>
</g>
</svg>
