<?xml version="1.0" encoding="UTF-8"?>
<svg xmlns="http://www.w3.org/2000/svg" xmlns:xlink="http://www.w3.org/1999/xlink" width="375pt" height="262.499992pt" viewBox="0 0 375 262.499992" version="1.2">
<defs>
<clipPath id="clip1">
  <path d="M 14 4.316406 L 361 4.316406 L 361 256 L 14 256 Z M 14 4.316406 "/>
</clipPath>
</defs>
<g id="surface1">
<g clip-path="url(#clip1)" clip-rule="nonzero">
<path style=" stroke:none;fill-rule:nonzero;fill:rgb(100%,100%,100%);fill-opacity:1;" d="M 14.757812 229.09375 L 14.757812 69.710938 C 14.757812 55.058594 26.671875 43.242188 41.359375 43.242188 L 110.914062 43.242188 L 135.578125 6.402344 C 136.824219 4.535156 138.902344 3.429688 141.121094 3.429688 L 234.230469 3.429688 C 236.445312 3.429688 238.527344 4.535156 239.773438 6.402344 L 264.4375 43.242188 L 333.992188 43.242188 C 348.679688 43.242188 360.59375 55.058594 360.59375 69.710938 L 360.59375 229.09375 C 360.59375 243.746094 348.679688 255.5625 333.921875 255.5625 L 41.429688 255.5625 C 26.742188 255.5625 14.757812 243.8125 14.757812 229.09375 Z M 41.359375 56.511719 C 34.015625 56.511719 28.058594 62.386719 28.058594 69.710938 L 28.058594 229.09375 C 28.058594 236.417969 34.015625 242.292969 41.429688 242.292969 L 333.921875 242.292969 C 341.335938 242.292969 347.292969 236.417969 347.292969 229.09375 L 347.292969 69.710938 C 347.292969 62.386719 341.335938 56.511719 333.992188 56.511719 L 260.832031 56.511719 C 258.617188 56.511719 256.539062 55.40625 255.289062 53.539062 L 230.628906 16.699219 L 144.722656 16.699219 L 120.058594 53.539062 C 118.8125 55.40625 116.734375 56.511719 114.515625 56.511719 Z M 260.832031 142.765625 C 260.832031 183.0625 228.0625 215.753906 187.675781 215.753906 C 147.285156 215.753906 114.515625 183.0625 114.515625 142.765625 C 114.515625 102.472656 147.285156 69.78125 187.675781 69.78125 C 228.0625 69.78125 260.832031 102.472656 260.832031 142.765625 Z M 127.820312 142.765625 C 127.820312 175.734375 154.628906 202.484375 187.675781 202.484375 C 220.722656 202.484375 247.53125 175.734375 247.53125 142.765625 C 247.53125 109.796875 220.722656 83.050781 187.675781 83.050781 C 154.628906 83.050781 127.820312 109.796875 127.820312 142.765625 Z M 294.085938 109.589844 C 286.742188 109.589844 280.785156 103.648438 280.785156 96.320312 C 280.785156 88.996094 286.742188 83.050781 294.085938 83.050781 C 301.429688 83.050781 307.386719 88.996094 307.386719 96.320312 C 307.386719 103.648438 301.429688 109.589844 294.085938 109.589844 Z M 294.085938 109.589844 "/>
</g>
</g>
</svg>
