<?xml version="1.0" encoding="UTF-8"?>
<svg xmlns="http://www.w3.org/2000/svg" xmlns:xlink="http://www.w3.org/1999/xlink" width="337.5pt" height="225pt" viewBox="0 0 337.5 225" version="1.2">
<defs>
<clipPath id="clip1">
  <path d="M 5.453125 3.054688 L 331.703125 3.054688 L 331.703125 222.054688 L 5.453125 222.054688 Z M 5.453125 3.054688 "/>
</clipPath>
</defs>
<g id="surface1">
<g clip-path="url(#clip1)" clip-rule="nonzero">
<path style=" stroke:none;fill-rule:nonzero;fill:#ced4da;fill-opacity:1;" d="M 318.820312 3.054688 L 18.335938 3.054688 C 11.207031 3.054688 5.605469 8.65625 5.605469 15.785156 L 5.605469 209.320312 C 5.605469 216.449219 11.207031 222.054688 18.335938 222.054688 L 318.820312 222.054688 C 325.949219 222.054688 331.550781 216.449219 331.550781 209.320312 L 331.550781 15.785156 C 331.550781 8.65625 325.949219 3.054688 318.820312 3.054688 Z M 308.632812 136.492188 L 262.289062 90.144531 C 261.269531 89.125 259.742188 89.125 258.722656 90.144531 L 210.59375 138.273438 L 137.257812 64.933594 C 136.238281 63.914062 134.710938 63.914062 133.691406 64.933594 L 87.347656 111.535156 L 66.210938 90.398438 C 65.191406 89.378906 63.410156 89.378906 62.390625 90.398438 L 28.523438 124.011719 L 28.523438 25.972656 L 308.632812 25.972656 Z M 308.632812 136.492188 "/>
</g>
<path style=" stroke:none;fill-rule:nonzero;fill:#ced4da;fill-opacity:1;" d="M 207.03125 84.796875 C 216.960938 84.796875 224.855469 76.648438 224.855469 66.972656 C 224.855469 57.039062 216.707031 49.144531 207.03125 49.144531 C 197.351562 49.144531 189.203125 57.292969 189.203125 66.972656 C 188.949219 76.648438 197.097656 84.796875 207.03125 84.796875 Z M 207.03125 84.796875 "/>
</g>
</svg>
