<?xml version="1.0" encoding="UTF-8"?>
<svg xmlns="http://www.w3.org/2000/svg" xmlns:xlink="http://www.w3.org/1999/xlink" width="750pt" height="599.999999pt" viewBox="0 0 750 599.999999" version="1.2">
<defs>
<clipPath id="clip1">
  <path d="M 60 12.5625 L 690 12.5625 L 690 587.8125 L 60 587.8125 Z M 60 12.5625 "/>
</clipPath>
</defs>
<g id="surface1">
<g clip-path="url(#clip1)" clip-rule="nonzero">
<path style=" stroke:none;fill-rule:nonzero;fill:rgb(80.778503%,83.139038%,85.488892%);fill-opacity:1;" d="M 156 587.8125 C 149.839844 587.8125 144.449219 583.703125 142.804688 577.773438 C 141.164062 571.84375 143.679688 565.542969 148.949219 562.378906 C 178.226562 544.804688 189.929688 517.890625 185.277344 478.242188 L 128.625 478.242188 C 90.886719 478.242188 60.1875 447.519531 60.1875 409.757812 L 60.1875 81.042969 C 60.1875 43.285156 90.886719 12.5625 128.625 12.5625 L 621.375 12.5625 C 659.113281 12.5625 689.8125 43.285156 689.8125 81.042969 L 689.8125 409.757812 C 689.8125 447.519531 659.113281 478.242188 621.375 478.242188 L 315.925781 478.242188 C 275.191406 576.925781 191.039062 587.8125 156 587.8125 Z M 156 587.8125 "/>
</g>
</g>
</svg>
