<?xml version="1.0" encoding="UTF-8"?>
<svg xmlns="http://www.w3.org/2000/svg" xmlns:xlink="http://www.w3.org/1999/xlink" width="375pt" height="299.999988pt" viewBox="0 0 375 299.999988" version="1.2">
<defs>
<clipPath id="clip1">
  <path d="M 7 15 L 370 15 L 370 286.78125 L 7 286.78125 Z M 7 15 "/>
</clipPath>
</defs>
<g id="surface1">
<g clip-path="url(#clip1)" clip-rule="nonzero">
<path style=" stroke:none;fill-rule:nonzero;fill:rgb(100%,100%,100%);fill-opacity:1;" d="M 369.847656 46.800781 C 369.898438 45.1875 369.824219 43.578125 369.621094 41.980469 C 369.414062 40.378906 369.085938 38.804688 368.625 37.257812 C 368.167969 35.710938 367.589844 34.210938 366.890625 32.757812 C 366.191406 31.300781 365.378906 29.914062 364.457031 28.589844 C 363.53125 27.265625 362.511719 26.023438 361.386719 24.863281 C 360.265625 23.707031 359.054688 22.644531 357.761719 21.679688 C 356.46875 20.714844 355.105469 19.859375 353.671875 19.113281 C 352.242188 18.367188 350.757812 17.742188 349.226562 17.234375 C 347.695312 16.726562 346.128906 16.34375 344.535156 16.085938 C 342.941406 15.832031 341.339844 15.703125 339.722656 15.707031 C 338.109375 15.707031 336.503906 15.839844 334.910156 16.097656 C 333.320312 16.359375 331.757812 16.742188 330.222656 17.253906 C 328.691406 17.765625 327.210938 18.394531 325.78125 19.144531 C 324.351562 19.890625 322.992188 20.75 321.699219 21.71875 C 320.40625 22.6875 319.203125 23.75 318.082031 24.914062 C 316.960938 26.074219 315.941406 27.316406 315.019531 28.644531 L 188.996094 204.964844 L 62.96875 28.644531 C 62.410156 27.8125 61.808594 27.007812 61.167969 26.234375 C 60.527344 25.460938 59.851562 24.722656 59.136719 24.015625 C 58.421875 23.3125 57.675781 22.644531 56.894531 22.011719 C 56.113281 21.382812 55.300781 20.792969 54.460938 20.242188 C 53.621094 19.695312 52.757812 19.1875 51.863281 18.726562 C 50.972656 18.261719 50.0625 17.84375 49.128906 17.472656 C 48.195312 17.101562 47.25 16.777344 46.28125 16.5 C 45.316406 16.222656 44.339844 15.996094 43.351562 15.816406 C 42.367188 15.636719 41.371094 15.507812 40.371094 15.425781 C 39.367188 15.347656 38.367188 15.316406 37.363281 15.339844 C 36.359375 15.359375 35.359375 15.429688 34.363281 15.550781 C 33.363281 15.671875 32.375 15.839844 31.398438 16.058594 C 30.417969 16.277344 29.449219 16.546875 28.496094 16.863281 C 27.542969 17.179688 26.609375 17.542969 25.691406 17.949219 C 24.777344 18.359375 23.882812 18.8125 23.011719 19.3125 C 22.140625 19.8125 21.296875 20.351562 20.476562 20.9375 C 19.660156 21.519531 18.875 22.140625 18.121094 22.804688 C 17.367188 23.464844 16.644531 24.164062 15.960938 24.898438 C 15.277344 25.632812 14.628906 26.398438 14.019531 27.195312 C 13.414062 27.992188 12.847656 28.820312 12.320312 29.675781 C 11.796875 30.53125 11.3125 31.410156 10.875 32.3125 C 10.4375 33.214844 10.046875 34.140625 9.703125 35.082031 C 9.359375 36.023438 9.0625 36.980469 8.8125 37.953125 C 8.5625 38.925781 8.363281 39.90625 8.210938 40.898438 C 8.0625 41.890625 7.960938 42.890625 7.910156 43.890625 C 7.859375 44.894531 7.859375 45.894531 7.90625 46.898438 C 7.957031 47.898438 8.054688 48.898438 8.207031 49.890625 C 8.355469 50.882812 8.554688 51.863281 8.800781 52.835938 C 9.046875 53.808594 9.34375 54.765625 9.6875 55.710938 C 10.03125 56.652344 10.421875 57.574219 10.855469 58.480469 C 11.292969 59.382812 11.773438 60.265625 12.296875 61.121094 C 12.820312 61.976562 13.386719 62.804688 13.992188 63.601562 L 164.507812 274.179688 C 164.851562 274.664062 165.214844 275.136719 165.589844 275.601562 C 165.964844 276.0625 166.351562 276.515625 166.753906 276.957031 C 167.15625 277.394531 167.570312 277.824219 167.996094 278.238281 C 168.425781 278.652344 168.863281 279.054688 169.3125 279.445312 C 169.765625 279.835938 170.226562 280.210938 170.699219 280.574219 C 171.175781 280.933594 171.65625 281.28125 172.152344 281.613281 C 172.644531 281.949219 173.148438 282.265625 173.660156 282.570312 C 174.175781 282.875 174.695312 283.160156 175.226562 283.433594 C 175.757812 283.707031 176.292969 283.960938 176.839844 284.203125 C 177.382812 284.441406 177.9375 284.667969 178.496094 284.875 C 179.054688 285.082031 179.617188 285.273438 180.1875 285.449219 C 180.757812 285.621094 181.332031 285.78125 181.910156 285.917969 C 182.492188 286.058594 183.074219 286.183594 183.660156 286.289062 C 184.246094 286.394531 184.835938 286.480469 185.429688 286.550781 C 186.019531 286.621094 186.613281 286.675781 187.207031 286.710938 C 187.804688 286.746094 188.398438 286.765625 188.996094 286.765625 C 189.589844 286.765625 190.1875 286.746094 190.78125 286.710938 C 191.375 286.675781 191.96875 286.621094 192.5625 286.550781 C 193.152344 286.480469 193.742188 286.394531 194.328125 286.289062 C 194.914062 286.183594 195.496094 286.058594 196.078125 285.917969 C 196.65625 285.78125 197.230469 285.621094 197.800781 285.449219 C 198.371094 285.273438 198.933594 285.082031 199.492188 284.875 C 200.050781 284.667969 200.605469 284.441406 201.148438 284.203125 C 201.695312 283.960938 202.230469 283.707031 202.761719 283.433594 C 203.292969 283.160156 203.8125 282.875 204.328125 282.570312 C 204.839844 282.265625 205.34375 281.949219 205.835938 281.613281 C 206.332031 281.28125 206.816406 280.933594 207.289062 280.574219 C 207.761719 280.210938 208.222656 279.835938 208.675781 279.445312 C 209.125 279.054688 209.566406 278.652344 209.992188 278.238281 C 210.417969 277.824219 210.832031 277.394531 211.234375 276.957031 C 211.636719 276.515625 212.023438 276.0625 212.398438 275.601562 C 212.773438 275.136719 213.136719 274.664062 213.480469 274.179688 L 363.996094 63.601562 C 365.796875 61.160156 367.195312 58.507812 368.191406 55.644531 C 369.191406 52.777344 369.742188 49.832031 369.847656 46.800781 Z M 369.847656 46.800781 "/>
</g>
</g>
</svg>
