<?xml version="1.0" encoding="UTF-8"?>
<svg xmlns="http://www.w3.org/2000/svg" xmlns:xlink="http://www.w3.org/1999/xlink" width="375pt" height="374.999991pt" viewBox="0 0 375 374.999991" version="1.2">
<defs>
<clipPath id="clip1">
  <path d="M 4.234375 4.234375 L 370.984375 4.234375 L 370.984375 370.984375 L 4.234375 370.984375 Z M 4.234375 4.234375 "/>
</clipPath>
</defs>
<g id="surface1">
<g clip-path="url(#clip1)" clip-rule="nonzero">
<path style=" stroke:none;fill-rule:nonzero;fill:rgb(12.939453%,12.939453%,12.548828%);fill-opacity:1;" d="M 187.609375 4.234375 C 86.332031 4.234375 4.234375 86.332031 4.234375 187.609375 C 4.234375 288.886719 86.332031 370.984375 187.609375 370.984375 C 288.886719 370.984375 370.984375 288.886719 370.984375 187.609375 C 370.984375 86.332031 288.886719 4.234375 187.609375 4.234375 Z M 187.609375 54.660156 C 220.523438 54.660156 247.207031 81.34375 247.207031 114.257812 C 247.207031 147.175781 220.523438 173.855469 187.609375 173.855469 C 154.691406 173.855469 128.011719 147.175781 128.011719 114.257812 C 128.011719 81.34375 154.691406 54.660156 187.609375 54.660156 Z M 187.609375 334.308594 C 136.8125 334.308594 92.070312 308.488281 65.738281 269.265625 C 86.292969 239.375 151.777344 224.285156 187.609375 224.285156 C 223.441406 224.285156 288.921875 239.375 309.480469 269.265625 C 283.148438 308.488281 238.402344 334.308594 187.609375 334.308594 Z M 187.609375 334.308594 "/>
</g>
</g>
</svg>
