<svg id="Layer_1" data-name="Layer 1" xmlns="http://www.w3.org/2000/svg" viewBox="0 0 473.436 387.044">
  <defs>
    <style>
      .cls-1 {
        fill: #ffd933;
      }

      .cls-2 {
        fill: #fff;
      }
    </style>
  </defs>
  <title>test3</title>
  <path class="cls-1" d="M234.449,78.038c1.294-1.291,2.639-2.528,4.044-3.7.375-.313.761-.612,1.138-.924.4-.326-.018.01-.086.063.165-.127.332-.253.5-.378q1.167-.871,2.375-1.689a66.221,66.221,0,0,1,9.359-5.262c.435-.2.874-.395,1.313-.59a2.6,2.6,0,0,1,.438-.187c.887-.36,1.778-.709,2.677-1.037q2.495-.911,5.047-1.645a88.263,88.263,0,0,1,12.1-2.545c.532-.075.089-.012-.015,0,.236-.031.473-.06.709-.089q.709-.085,1.421-.163,1.658-.18,3.322-.309,3.088-.24,6.187-.327c4.143-.121,8.292-.06,12.432.127,3.721.169,7.437.453,11.135.9l.855.106c.041.005.746.1.255.032s.213.031.255.037l.638.092q1.491.219,2.974.478,2.751.48,5.474,1.107a83.908,83.908,0,0,1,12.077,3.735c.2.079.4.16.6.241.071.029.845.356.453.187-.467-.2.35.156.449.2.262.116.524.234.784.353q1.471.673,2.909,1.412,2.9,1.494,5.642,3.265a4.538,4.538,0,0,0,6.157-1.614,4.6,4.6,0,0,0-1.614-6.157c-13.716-8.816-29.974-12.2-46.043-13.209C283.69,49.5,266.2,50.4,250.568,56.932a69.459,69.459,0,0,0-22.483,14.742,4.5,4.5,0,1,0,6.364,6.364Z" transform="translate(-14.512 -50.177)"/>
  <path class="cls-1" d="M368.486,92.062c2.358.09,4.715.224,7.067.421q1.645.136,3.289.313.822.088,1.642.186l.7.086.468.06c-.339-.047-.348-.049-.027,0a112.885,112.885,0,0,1,13.631,2.711,93.785,93.785,0,0,1,12.246,4.136c-.734-.308.718.319.879.391q.582.26,1.162.529,1.543.717,3.058,1.495,2.74,1.41,5.37,3.024c1.991,1.225,3.906,2.554,5.789,3.94.1.074.675.517.1.071.223.173.445.349.666.526q.663.529,1.313,1.076,1.464,1.23,2.857,2.538a4.5,4.5,0,0,0,6.364-6.364c-13.538-12.647-31.258-19.759-49.408-22.515a153.133,153.133,0,0,0-17.169-1.62,4.535,4.535,0,0,0-4.5,4.5,4.594,4.594,0,0,0,4.5,4.5Z" transform="translate(-14.512 -50.177)"/>
  <path class="cls-1" d="M442.818,128.182c.7.738,1.387,1.491,2.044,2.269.276.327.544.66.813.991q.49.621.074.092.253.335.5.673a46.9,46.9,0,0,1,2.88,4.483c.85,1.507,1.6,3.059,2.306,4.64-.4-.9.152.381.224.562q.252.638.488,1.282.436,1.191.82,2.4a73.9,73.9,0,0,1,2.368,9.978q.227,1.329.417,2.663c.034.233.182,1.387.048.327.048.38.1.761.144,1.142.215,1.768.394,3.541.557,5.315.215,2.338,1.916,4.616,4.5,4.5,2.253-.1,4.731-1.99,4.5-4.5-.687-7.478-1.646-15.021-3.975-22.188a54.729,54.729,0,0,0-12.343-20.994,4.541,4.541,0,0,0-6.364,0,4.591,4.591,0,0,0,0,6.364Z" transform="translate(-14.512 -50.177)"/>
  <path class="cls-1" d="M356.729,330.523A53.957,53.957,0,0,0,383.6,338.5a53.245,53.245,0,0,0,26.937-7.279A4.5,4.5,0,0,0,406,323.444c-1.042.593-2.1,1.161-3.173,1.688q-.6.291-1.2.569c-.14.064-1.691.725-.936.419A49.662,49.662,0,0,1,395,328.051q-1.627.443-3.285.766-.617.12-1.236.224c-.275.046-.55.09-.825.13q.762-.094-.043.006a47.774,47.774,0,0,1-6,.318q-1.556-.021-3.106-.151c-.414-.035-.827-.081-1.241-.121q-.805-.1-.043.006-.414-.058-.826-.123a46.845,46.845,0,0,1-5.956-1.348q-1.543-.456-3.053-1.013c-.407-.15-.809-.312-1.214-.465q-.74-.3-.135-.046c-.269-.116-.537-.233-.8-.353a56.437,56.437,0,0,1-5.954-3.13,4.5,4.5,0,1,0-4.542,7.772Z" transform="translate(-14.512 -50.177)"/>
  <path class="cls-1" d="M313.442,389.055c12.3-13.019,21.155-29.471,23.915-47.259.359-2.317-.588-4.954-3.143-5.536-2.151-.49-5.15.656-5.536,3.143a79.366,79.366,0,0,1-2.889,12.207c-.628,1.948-1.35,3.856-2.1,5.759q-.3.727-.019.062c-.108.252-.216.5-.326.755q-.248.565-.5,1.128-.682,1.5-1.425,2.979A87.285,87.285,0,0,1,315,373.042a80.647,80.647,0,0,1-7.921,9.649,4.5,4.5,0,0,0,6.364,6.364Z" transform="translate(-14.512 -50.177)"/>
  <path class="cls-1" d="M249.2,425.884a120.386,120.386,0,0,0,52.069-20c1.931-1.337,3-4.007,1.614-6.157-1.238-1.921-4.087-3.048-6.157-1.615a112.094,112.094,0,0,1-11.7,7.09,100.907,100.907,0,0,1-11.538,5.231,120.469,120.469,0,0,1-26.683,6.771c-2.342.318-3.822,3.437-3.143,5.535.833,2.575,3.026,3.484,5.535,3.143Z" transform="translate(-14.512 -50.177)"/>
  <path class="cls-1" d="M142.729,425.844a80.736,80.736,0,0,0,32.013,10.918,73.66,73.66,0,0,0,31.99-3.536,85.426,85.426,0,0,0,17.539-8.34,4.5,4.5,0,0,0-4.542-7.772c-2.321,1.445-4.7,2.789-7.151,4-1.1.546-2.221,1.053-3.342,1.56-1.257.569.448-.175-.311.137-.33.136-.66.272-.992.4q-.992.395-1.993.762a74.317,74.317,0,0,1-14.772,3.722c-.717.106.69-.071-.03,0-.341.034-.682.081-1.023.118q-.818.088-1.638.157-2.046.171-4.1.222a68.9,68.9,0,0,1-7.383-.216q-.819-.067-1.638-.155-.512-.054-1.023-.117c-.225-.027-1.133-.16-.234-.028-1.229-.181-2.453-.384-3.671-.624a72.033,72.033,0,0,1-7.489-1.9q-2.126-.663-4.207-1.452c-.666-.253-1.328-.517-1.989-.786-.118-.048-.787-.344-.113-.047-.395-.174-.791-.346-1.185-.523a82.432,82.432,0,0,1-8.174-4.277,4.5,4.5,0,1,0-4.542,7.771Z" transform="translate(-14.512 -50.177)"/>
  <path class="cls-1" d="M81.881,411.416a86.351,86.351,0,0,0,42.845,17.356c2.348.261,4.6-2.256,4.5-4.5-.119-2.661-1.985-4.221-4.5-4.5-.484-.054-.967-.114-1.451-.172q-.5-.063.162.022c-.275-.04-.55-.08-.825-.122q-1.237-.191-2.467-.42-2.565-.481-5.092-1.137a79.027,79.027,0,0,1-10.16-3.4c-1.289-.529.788.357-.488-.211-.389-.173-.778-.344-1.166-.521q-1.264-.578-2.509-1.2-2.416-1.2-4.753-2.56a92.263,92.263,0,0,1-9.553-6.406c-1.881-1.433-5.116-.356-6.157,1.614-1.256,2.376-.393,4.628,1.614,6.157Z" transform="translate(-14.512 -50.177)"/>
  <path class="cls-1" d="M41.228,331.61c-.5,19.318,3.845,39.365,15.438,55.151a68.708,68.708,0,0,0,10.543,11.551c1.783,1.533,4.635,1.883,6.364,0,1.546-1.685,1.906-4.725,0-6.364a62.175,62.175,0,0,1-8.729-9.17c.53.687-.426-.584-.528-.724q-.423-.579-.832-1.167-.937-1.344-1.811-2.732-1.694-2.689-3.142-5.524-.7-1.369-1.344-2.768c-.2-.435-.393-.873-.588-1.31-.357-.8-.1-.227-.03-.057q-.2-.472-.389-.948-1.275-3.171-2.267-6.445-1.045-3.433-1.792-6.948-.364-1.7-.661-3.41-.14-.8-.263-1.6-.072-.457-.138-.917c-.019-.127-.15-1.13-.06-.411a107.954,107.954,0,0,1-.771-16.206,4.539,4.539,0,0,0-4.5-4.5,4.59,4.59,0,0,0-4.5,4.5Z" transform="translate(-14.512 -50.177)"/>
  <path class="cls-1" d="M14.512,249.824A161.728,161.728,0,0,0,31.1,321.447a4.526,4.526,0,0,0,6.156,1.615,4.615,4.615,0,0,0,1.615-6.157q-1.517-3.088-2.9-6.241c-.208-.476-.415-.953-.616-1.431.3.7-.35-.858-.4-.984q-.631-1.551-1.227-3.115-2.437-6.395-4.3-12.987-1.91-6.739-3.221-13.63-.637-3.344-1.133-6.713c-.242-1.643-.5-3.676-.738-6.029q-.807-7.95-.826-15.951a4.5,4.5,0,0,0-9,0Z" transform="translate(-14.512 -50.177)"/>
  <path class="cls-1" d="M87.729,125.114a172.876,172.876,0,0,0-41.563,34.438,131.7,131.7,0,0,0-25.2,42.667A106.314,106.314,0,0,0,15.5,228a4.518,4.518,0,0,0,4.5,4.5,4.617,4.617,0,0,0,4.5-4.5q.117-1.354.268-2.705c.051-.451.107-.9.163-1.351.059-.474.256-.344-.026.185a2.536,2.536,0,0,0,.1-.675q.4-2.787.971-5.547A103.332,103.332,0,0,1,28.76,207.25q.874-2.739,1.893-5.428.466-1.23.961-2.449.132-.327.267-.651c.056-.136.351-.834.113-.275s.061-.14.119-.274q.175-.407.354-.81,2.307-5.235,5.118-10.227,2.913-5.185,6.3-10.082,1.7-2.456,3.5-4.834c.151-.2.3-.4.455-.6.406-.538-.432.547-.014.017.312-.4.621-.792.935-1.186q1-1.262,2.037-2.5a154.894,154.894,0,0,1,17.546-17.816q2.754-2.387,5.609-4.652.8-.636,1.609-1.262c-.659.51.723-.547.883-.668q1.485-1.119,2.993-2.207,6.236-4.5,12.832-8.462a4.5,4.5,0,0,0-4.542-7.772Z" transform="translate(-14.512 -50.177)"/>
  <path class="cls-1" d="M152.555,350.562A26.751,26.751,0,0,1,154,348.287c-.574.824.377-.443.5-.587q.384-.43.792-.839c.364-.363.754-.693,1.131-1.04.688-.635-.549.327.3-.24a21.575,21.575,0,0,1,2.3-1.386c.189-.094,1.143-.471.447-.214.534-.2,1.072-.376,1.623-.521.414-.109.829-.192,1.248-.278q.807-.132.069-.017.425-.043.849-.063.637-.03,1.275-.007.424.015.847.054-.635-.107-.144-.025a18.455,18.455,0,0,1,2.862.786l-.1-.039q.385.179.762.373c.378.194.749.4,1.117.612.863.5,1.7,1.036,2.539,1.573,1.733,1.11,3.486,2.177,5.31,3.131a66.665,66.665,0,0,0,12.234,4.926,4.5,4.5,0,1,0,2.393-8.678,49.116,49.116,0,0,1-11.653-4.87c-3.994-2.246-7.671-5.3-12.238-6.33-9.6-2.171-19.016,3.039-23.676,11.411a4.5,4.5,0,0,0,7.771,4.543Z" transform="translate(-14.512 -50.177)"/>
  <path class="cls-1" d="M165.407,262.324a67.431,67.431,0,0,0,5.207,44.015,4.524,4.524,0,0,0,6.157,1.614,4.617,4.617,0,0,0,1.614-6.157q-.573-1.182-1.1-2.385a2.424,2.424,0,0,1-.223-.54c-.131-.341-.269-.679-.4-1.02q-.9-2.352-1.6-4.774t-1.2-4.889q-.24-1.18-.435-2.369c-.07-.432-.135-.865-.2-1.3.132.908-.056-.49-.062-.541a62.341,62.341,0,0,1-.328-10.057q.117-2.4.422-4.8c-.117.911.078-.487.086-.537q.1-.65.218-1.3c.155-.862.332-1.72.522-2.575a4.582,4.582,0,0,0-3.143-5.536c-2.278-.519-4.991.685-5.536,3.143Z" transform="translate(-14.512 -50.177)"/>
  <path class="cls-1" d="M110.922,223.076a37.933,37.933,0,0,0,8.819,20.84,36.859,36.859,0,0,0,18.2,11.414,4.5,4.5,0,1,0,2.392-8.678c-.783-.216-1.559-.451-2.325-.72q-.478-.169-.951-.353c-.189-.073-.378-.148-.565-.225q.583.247.143.053c-1.339-.664-2.666-1.3-3.937-2.1q-.946-.591-1.852-1.245c-.066-.048-1.072-.865-.38-.28-.31-.262-.628-.513-.935-.779a32.147,32.147,0,0,1-3.16-3.147q-.337-.387-.662-.785c-.131-.16-.261-.322-.388-.485q.36.462.078.084c-.415-.636-.875-1.24-1.28-1.885a34.225,34.225,0,0,1-2.146-4.017c-.558-1.225.286.806-.185-.455-.145-.389-.292-.775-.427-1.167q-.337-.979-.612-1.98-.33-1.2-.566-2.42c-.079-.407-.146-.816-.212-1.225.131.808-.018-.175-.047-.448-.248-2.333-1.892-4.617-4.5-4.5-2.225.1-4.766,1.993-4.5,4.5Z" transform="translate(-14.512 -50.177)"/>
  <path class="cls-1" d="M282.6,204.469a51.511,51.511,0,0,0-11.466,34.653,4.574,4.574,0,0,0,4.5,4.5c2.336-.105,4.627-1.982,4.5-4.5-.071-1.39-.089-2.781-.036-4.172q.036-.939.11-1.875c.028-.346.059-.693.094-1.039.011-.108.134-1.224.066-.645-.066.561.1-.663.1-.641q.065-.413.137-.824.18-1.027.407-2.047.453-2.037,1.086-4.029.284-.9.6-1.779.179-.49.366-.978c.037-.093.446-1.117.243-.623-.193.471.282-.638.27-.612q.215-.476.44-.946.4-.847.842-1.679.975-1.845,2.114-3.6.512-.786,1.056-1.552c.2-.283.409-.563.615-.843.558-.764-.327.4.32-.408,1.468-1.835,1.927-4.6,0-6.364-1.632-1.5-4.794-1.964-6.364,0Z" transform="translate(-14.512 -50.177)"/>
  <path class="cls-1" d="M225.337,265.965a103.487,103.487,0,0,1,14.71-.264q1.893.114,3.778.318c.16.018,1.861.237,1.152.136q.938.134,1.87.3a60.214,60.214,0,0,1,6.853,1.584q1.463.432,2.9.945.766.273,1.525.571.378.148.755.3-.673-.288.049.024a52.361,52.361,0,0,1,5.589,2.89q1.3.785,2.545,1.656.663.464,1.307.953c-.746-.568.545.451.669.555a40.161,40.161,0,0,1,4.6,4.543,4.523,4.523,0,0,0,6.364,0,4.613,4.613,0,0,0,0-6.364c-10.152-11.767-25.8-16.727-40.9-17.461a105.377,105.377,0,0,0-13.763.316c-2.34.193-4.615,1.932-4.5,4.5.1,2.273,1.987,4.707,4.5,4.5Z" transform="translate(-14.512 -50.177)"/>
  <path class="cls-1" d="M261.823,384.729A76.963,76.963,0,0,0,290.8,360.965c1.42-1.889.366-5.111-1.614-6.157-2.364-1.249-4.641-.4-6.157,1.614-.038.051-.854,1.1-.29.388-.212.267-.422.535-.636.8q-.707.874-1.44,1.727-1.334,1.548-2.755,3.019a72.149,72.149,0,0,1-6.477,5.932q-.4.321-.8.638c-.643.509.181-.122-.223.169-.608.438-1.2.894-1.815,1.327q-1.752,1.239-3.577,2.371a72.456,72.456,0,0,1-7.733,4.165c-2.141.994-2.845,4.247-1.614,6.157a4.626,4.626,0,0,0,6.157,1.614Z" transform="translate(-14.512 -50.177)"/>
  <path class="cls-1" d="M291.4,309.842a29.041,29.041,0,0,1,1.56,6c-.131-.881.081.842.1,1q.055.665.088,1.331c.052,1.042.062,2.087.041,3.13-.042,2.109-.214,4.214-.453,6.309-.051.451-.108.9-.163,1.351-.071.55-.077.6-.017.153-.041.3-.082.6-.125.9-.148,1.041-.305,2.081-.463,3.121-.353,2.317.582,4.952,3.143,5.535,2.145.489,5.156-.654,5.535-3.143,1.409-9.258,2.839-19.064-.563-28.082-.828-2.2-3.075-3.939-5.535-3.143-2.146.694-4.032,3.177-3.143,5.536Z" transform="translate(-14.512 -50.177)"/>
  <path class="cls-1" d="M204.447,150.213c-3.855,7.4-5.564,16.3-2.757,24.359a24.792,24.792,0,0,0,6.3,10.019c3.1,2.895,6.9,4.438,10.53,6.5q1.435.815,2.786,1.769c.168.119.331.249.5.362.585.387-.471-.393.074.048.428.346.853.695,1.267,1.058q1.164,1.02,2.231,2.144.5.525.971,1.07c.181.208.358.418.534.63.1.117.678.856.192.222,1.426,1.862,3.94,3.044,6.157,1.614,1.841-1.186,3.145-4.157,1.615-6.157a41.533,41.533,0,0,0-8.5-8.4c-2.994-2.2-6.41-3.574-9.582-5.467-.38-.228-.757-.463-1.124-.712-.241-.162-1.032-.813-.422-.284a22.58,22.58,0,0,1-1.815-1.712c-.305-.33-.594-.671-.876-1.019.483.595-.04-.08-.207-.327a20.3,20.3,0,0,1-1.27-2.158c-.088-.172-.17-.347-.257-.519-.03-.059-.308-.642-.089-.168s-.045-.111-.07-.177q-.1-.272-.2-.544a22.076,22.076,0,0,1-.713-2.412c-.1-.44-.162-.89-.266-1.328-.122-.511.01.175.019.241-.025-.2-.046-.4-.066-.6a23.849,23.849,0,0,1-.1-2.828c.01-.508.038-1.015.079-1.521.018-.217.039-.434.061-.65.034-.344.1-.575.011-.1.183-1.005.373-2,.639-2.987.287-1.063.686-2.074,1.03-3.116.16-.485,0-.031-.039.062.111-.27.235-.535.357-.8.245-.529.508-1.049.777-1.566a4.5,4.5,0,1,0-7.771-4.543Z" transform="translate(-14.512 -50.177)"/>
  <path class="cls-1" d="M244.449,159.787c.721-.678,1.456-1.339,2.212-1.976q.534-.45,1.079-.885c.082-.065.691-.537.231-.186s.156-.113.24-.176a52.7,52.7,0,0,1,10.072-5.885,5.921,5.921,0,0,1,.64-.278c-.327.1-.6.245-.108.051.432-.17.865-.342,1.3-.5.982-.366,1.974-.7,2.974-1.008a4.5,4.5,0,1,0-2.392-8.678,57.981,57.981,0,0,0-22.612,13.162,4.539,4.539,0,0,0,0,6.364,4.594,4.594,0,0,0,6.364,0Z" transform="translate(-14.512 -50.177)"/>
  <path class="cls-1" d="M281.3,103.6a43.38,43.38,0,0,0-11.073,13.038A4.5,4.5,0,0,0,278,121.179a40.978,40.978,0,0,1,3.351-5.091l-.7.911a40.536,40.536,0,0,1,7.018-7.037,4.488,4.488,0,0,0,1.318-3.182,4.58,4.58,0,0,0-1.318-3.182,4.53,4.53,0,0,0-3.182-1.318l-1.2.161A4.51,4.51,0,0,0,281.3,103.6Z" transform="translate(-14.512 -50.177)"/>
  <path class="cls-1" d="M307.783,174.34c.765.228,1.514.487,2.264.761,1.218.447-.787-.382.393.157.362.165.722.333,1.078.51a31.456,31.456,0,0,1,3.934,2.332c.328.227.646.468.971.7q.381.287-.119-.094c.156.124.311.249.465.377q.849.7,1.654,1.449a37.132,37.132,0,0,1,3.286,3.491c.1.122.806,1.019.328.394.262.344.516.694.766,1.046q.687.969,1.318,1.976a47.043,47.043,0,0,1,2.413,4.343c.381.778.745,1.565,1.083,2.362-.332-.781.193.5.2.528q.237.606.462,1.217c.6,1.628,1.117,3.282,1.585,4.952a4.5,4.5,0,0,0,8.679-2.392c-4.062-14.5-13.287-28.311-28.373-32.786a4.5,4.5,0,0,0-2.392,8.678Z" transform="translate(-14.512 -50.177)"/>
  <path class="cls-1" d="M393.034,253.023c6.663-1.455,12.311-6.086,15.853-11.811,3.848-6.219,5.134-13.78,4.961-21a4.5,4.5,0,1,0-9,0,46.839,46.839,0,0,1-.111,4.769c-.028.361-.062.721-.1,1.081-.017.159-.15,1.136-.027.31-.106.714-.229,1.426-.376,2.132a31.729,31.729,0,0,1-1.3,4.558c-.035.093-.453,1.122-.254.662s-.261.553-.3.642q-.488,1.011-1.061,1.976-.487.816-1.038,1.591c-.225.317-.5.643-.1.153-.24.3-.482.589-.733.875q-.628.714-1.314,1.373-.411.394-.84.768c-.085.073-.886.739-.424.367s-.361.259-.454.324c-.31.215-.625.423-.946.621q-.8.494-1.644.91c-.106.052-1.058.467-.489.236s-.4.141-.514.179a19.079,19.079,0,0,1-2.178.6,4.533,4.533,0,0,0-3.143,5.536,4.6,4.6,0,0,0,5.535,3.143Z" transform="translate(-14.512 -50.177)"/>
  <path class="cls-1" d="M355.394,170.964c.762-.4,1.534-.788,2.32-1.143.181-.083.363-.163.546-.242q-.7.294.027,0c.372-.139.741-.287,1.115-.422a39.746,39.746,0,0,1,4.574-1.345q1.259-.291,2.535-.5c.209-.035,1.628-.209.577-.092.395-.044.79-.09,1.187-.126a42.084,42.084,0,0,1,4.971-.156q1.294.036,2.584.151c.4.036.792.082,1.187.124,1,.107-.7-.129.381.057a46.52,46.52,0,0,1,4.854,1.068q1.242.353,2.461.786.561.2,1.117.416c.092.036,1.281.559.394.153a45.079,45.079,0,0,1,4.585,2.386,4.5,4.5,0,0,0,4.542-7.772,45.759,45.759,0,0,0-44.5-1.113,4.538,4.538,0,0,0-1.614,6.157,4.6,4.6,0,0,0,6.157,1.614Z" transform="translate(-14.512 -50.177)"/>
  <path class="cls-1" d="M186.418,322.52a54.365,54.365,0,0,0,34.694,6.646c2.342-.314,3.821-3.439,3.143-5.535-.834-2.577-3.025-3.48-5.535-3.143.661-.089.006-.01-.306.023q-.43.046-.861.084-.969.085-1.941.131-1.942.091-3.889.027c-1.3-.044-2.588-.152-3.88-.284-.349-.036-.57-.065-.09,0-.358-.047-.714-.1-1.069-.162q-.96-.156-1.914-.349a49.2,49.2,0,0,1-7.272-2.066c-.608-.224-1.213-.458-1.811-.71.586.247-.067-.038-.312-.149-.263-.119-.524-.24-.785-.364-1.237-.587-2.445-1.231-3.63-1.918a4.5,4.5,0,1,0-4.542,7.771Z" transform="translate(-14.512 -50.177)"/>
  <path class="cls-1" d="M90.354,184.457c-14.077,6.437-21.852,20.813-26.6,34.824a4.532,4.532,0,0,0,3.143,5.535,4.606,4.606,0,0,0,5.535-3.143c.569-1.679,1.167-3.349,1.816-5q.245-.62.5-1.235a3.047,3.047,0,0,1,.237-.558c.356-.811.72-1.619,1.1-2.418a58.148,58.148,0,0,1,5.327-9.067c.236-.324.474-.647.719-.964-.478.617.142-.163.293-.347q.765-.93,1.578-1.819a41.132,41.132,0,0,1,3.446-3.351c.3-.261.614-.512.92-.769.728-.614-.494.331.352-.275.6-.427,1.189-.852,1.8-1.251a33.94,33.94,0,0,1,4.374-2.391c2.147-.982,2.84-4.256,1.614-6.157a4.63,4.63,0,0,0-6.157-1.615Z" transform="translate(-14.512 -50.177)"/>
  <path class="cls-1" d="M133.15,286.131a50,50,0,0,0,11.361,33.279c1.49,1.835,4.836,1.664,6.364,0a4.628,4.628,0,0,0,0-6.364c-.062-.077-.739-.932-.423-.522.3.388-.416-.566-.4-.542q-.55-.756-1.067-1.536-1.033-1.559-1.934-3.2c-.633-1.156-1.2-2.34-1.744-3.543-.338-.754.061.2-.109-.267-.094-.26-.2-.516-.3-.774q-.369-.972-.694-1.96a51.415,51.415,0,0,1-1.772-7.476c.077.454.041.362-.005-.04-.04-.344-.078-.688-.112-1.033q-.088-.931-.14-1.865c-.074-1.385-.076-2.771-.024-4.156a4.535,4.535,0,0,0-4.5-4.5,4.593,4.593,0,0,0-4.5,4.5Z" transform="translate(-14.512 -50.177)"/>
  <path class="cls-1" d="M83.229,249.485a56.887,56.887,0,0,0,21.637,27.274,4.53,4.53,0,0,0,6.157-1.614,4.606,4.606,0,0,0-1.614-6.157c-.54-.36-1.076-.727-1.6-1.107-.263-.189-.519-.389-.784-.577-.585-.414.8.648-.168-.128-1.013-.813-2-1.653-2.955-2.536a51.539,51.539,0,0,1-5.169-5.555c-.111-.138-.661-.866-.136-.163-.155-.208-.313-.415-.467-.624q-.577-.785-1.124-1.59-1.1-1.611-2.066-3.3t-1.808-3.448c-.251-.528-.485-1.063-.726-1.595-.218-.483.234.615-.072-.183-.14-.364-.285-.725-.423-1.089-.833-2.194-3.072-3.94-5.536-3.143-2.141.693-4.037,3.179-3.143,5.535Z" transform="translate(-14.512 -50.177)"/>
  <path class="cls-1" d="M174.194,143.258a50.532,50.532,0,0,0-3.838,34.669,4.5,4.5,0,1,0,8.678-2.392c-.314-1.262-.584-2.532-.791-3.816-.046-.285-.09-.57-.13-.856.066.479.033.254,0-.093-.066-.646-.13-1.292-.174-1.941a45.6,45.6,0,0,1,.14-7.786c.03-.287.066-.574.1-.861.081-.735-.12.636.016-.091.118-.639.208-1.283.333-1.921q.373-1.912.911-3.789.508-1.768,1.159-3.492c.128-.338.263-.672.4-1.008-.175.444-.066.145.053-.122q.441-.988.923-1.959c1.045-2.106.635-4.968-1.614-6.157-2.034-1.074-5.04-.637-6.157,1.615Z" transform="translate(-14.512 -50.177)"/>
  <path class="cls-1" d="M177.544,213.7a45.4,45.4,0,0,1,9.554.042c.334.041.259.031-.228-.032.194.027.387.057.58.088q.675.108,1.347.236,1.152.22,2.291.5a43.077,43.077,0,0,1,4.485,1.379c.367.135.731.279,1.1.42,1.2.468-.812-.377.367.152.714.321,1.423.651,2.121,1a42.977,42.977,0,0,1,4.059,2.348c.654.429,1.285.888,1.925,1.338.854.6-.411-.356.329.248.3.247.608.491.906.743a41.684,41.684,0,0,1,3.665,3.517,4.537,4.537,0,0,0,6.364,0,4.6,4.6,0,0,0,0-6.364A47.013,47.013,0,0,0,177.544,204.7c-2.332.257-4.617,1.886-4.5,4.5.1,2.217,1.994,4.776,4.5,4.5Z" transform="translate(-14.512 -50.177)"/>
  <path class="cls-1" d="M197.253,245.445c1.42-.772,2.868-1.466,4.34-2.132q.695-.3-.122.047.32-.132.64-.26.481-.194.966-.376,1.212-.459,2.445-.858,2.3-.749,4.66-1.289,1.179-.27,2.368-.488.6-.11,1.192-.205c.238-.038,1.785-.251.514-.085a4.944,4.944,0,0,0,3.181-1.318,4.571,4.571,0,0,0,1.319-3.182c-.1-2.176-2-4.826-4.5-4.5a61.252,61.252,0,0,0-21.545,6.875,4.541,4.541,0,0,0-1.614,6.157,4.593,4.593,0,0,0,6.156,1.614Z" transform="translate(-14.512 -50.177)"/>
  <path class="cls-1" d="M147.979,388.176A51.928,51.928,0,0,0,172.26,399.2a51.2,51.2,0,0,0,26.835-2.765,54.566,54.566,0,0,0,14.03-8.145c1.851-1.472,1.653-4.847,0-6.364-1.964-1.8-4.389-1.57-6.364,0-.1.08-.673.519-.091.079l-.509.38q-.6.44-1.207.859-1.221.84-2.5,1.6a48.687,48.687,0,0,1-5.268,2.713c-.815.36-.271.11-.1.04-.2.079-.393.158-.59.235q-.69.27-1.389.519-1.5.534-3.027.964c-1.911.54-3.841.895-5.792,1.251-.526.1.066,0,.148-.014-.28.036-.561.069-.841.1q-.632.069-1.265.121-1.583.129-3.172.148c-1.964.024-3.894-.148-5.848-.306-.726-.058.673.109-.047,0-.206-.031-.413-.06-.62-.093q-.721-.112-1.441-.25-1.541-.293-3.058-.686a47.426,47.426,0,0,1-5.561-1.812c-.2-.077-.388-.157-.582-.235-.463-.185.479.225-.27-.122-.5-.234-1.013-.464-1.514-.709q-1.407-.69-2.767-1.472-1.449-.833-2.836-1.769-.691-.468-1.368-.96c-.169-.124-.336-.248-.5-.373-1.1-.82.663.535-.408-.324-1.832-1.471-4.6-1.925-6.364,0-1.5,1.634-1.961,4.791,0,6.364Z" transform="translate(-14.512 -50.177)"/>
  <path class="cls-1" d="M92.488,304.751a65.04,65.04,0,0,0-11.808,21.8,47.192,47.192,0,0,0-.429,25.992,4.5,4.5,0,0,0,8.679-2.393c-.267-.952-.506-1.909-.7-2.878-.1-.521-.191-1.045-.283-1.568-.168-.95.019.441-.083-.609a45.7,45.7,0,0,1-.237-5.462q.033-1.485.17-2.964c.048-.531.1-1.062.173-1.59-.105.775.086-.488.107-.613a46.847,46.847,0,0,1,1.284-5.523,47.69,47.69,0,0,1,1.8-5.068c-.336.792.217-.471.232-.5q.267-.588.547-1.17.609-1.263,1.278-2.493,1.287-2.37,2.779-4.619.715-1.08,1.472-2.131c.252-.351.512-.695.766-1.044q.48-.63.082-.118.266-.34.534-.677c1.46-1.841,1.931-4.591,0-6.364-1.627-1.493-4.8-1.97-6.364,0Z" transform="translate(-14.512 -50.177)"/>
  <path class="cls-1" d="M238.927,105.234a96.415,96.415,0,0,0-14.81,21.3c-1.065,2.1-.62,4.976,1.614,6.156,2.052,1.084,5.019.627,6.157-1.614a92.168,92.168,0,0,1,6.252-10.53q.818-1.188,1.673-2.348c.321-.436.649-.866.974-1.3.4-.526-.454.569-.042.056.151-.187.3-.378.447-.566q1.966-2.468,4.1-4.793a4.5,4.5,0,0,0-6.363-6.364Z" transform="translate(-14.512 -50.177)"/>
  <path class="cls-1" d="M346.9,266.541a73.98,73.98,0,0,1-2.247,9.348q-.745,2.4-1.655,4.739c-.151.39-.31.777-.464,1.166-.3.767.09-.182-.113.275-.339.765-.675,1.531-1.032,2.288a73.8,73.8,0,0,1-4.659,8.411q-1.3,2.024-2.731,3.959c-.249.336-.5.671-.755,1,.469-.607-.217.266-.33.406-.524.652-1.062,1.293-1.607,1.928-1.532,1.784-1.884,4.634,0,6.364,1.684,1.545,4.727,1.907,6.364,0a78.5,78.5,0,0,0,17.908-37.493c.4-2.311-.617-4.96-3.143-5.536-2.187-.5-5.105.664-5.536,3.143Z" transform="translate(-14.512 -50.177)"/>
  <path class="cls-1" d="M383.2,295.809a48.88,48.88,0,0,0,5-18.937,4.528,4.528,0,0,0-4.5-4.5,4.6,4.6,0,0,0-4.5,4.5c-.04.709-.094,1.418-.168,2.124-.015.144-.1,1.406-.064.611s-.072.454-.1.607q-.33,2.028-.855,4.018t-1.235,3.919c-.105.285-.214.57-.325.853q-.111.283-.227.565.389-.909.1-.234c-.288.65-.586,1.294-.9,1.932-1.039,2.108-.638,4.966,1.614,6.156,2.029,1.072,5.047.64,6.157-1.614Z" transform="translate(-14.512 -50.177)"/>
  <path class="cls-1" d="M417.644,273.567c14.079-6.74,23.448-21.842,23.681-37.377a4.5,4.5,0,0,0-9,0c-.013.857-.049,1.713-.121,2.568-.04.487-.094.973-.153,1.459.1-.8.021-.181-.052.255a37.163,37.163,0,0,1-1.2,4.987q-.359,1.137-.788,2.25c-.079.206-.612,1.445-.172.454-.149.336-.3.671-.454,1a39.256,39.256,0,0,1-2.484,4.5c-.463.723-.958,1.42-1.457,2.119-.71.995.578-.695-.19.256-.269.333-.54.665-.818.992a38.551,38.551,0,0,1-3.445,3.556c-.634.576-1.289,1.125-1.959,1.658.825-.657-.235.164-.407.288q-.522.375-1.055.73A36.665,36.665,0,0,1,413.1,265.8a4.523,4.523,0,0,0-1.614,6.157,4.619,4.619,0,0,0,6.156,1.614Z" transform="translate(-14.512 -50.177)"/>
  <path class="cls-1" d="M102.334,114.859c.046-.11.343-.792.055-.134.087-.2.173-.4.261-.6q.3-.692.621-1.376.671-1.444,1.4-2.86,1.371-2.656,2.958-5.195,1.531-2.445,3.259-4.758l.353-.468c-.1.138-.521.658.011-.01.24-.3.481-.605.725-.9q.967-1.182,1.986-2.319a64.88,64.88,0,0,1,7.608-7.217c.27-.217,1.06-.816.356-.289.331-.248.661-.5,1-.744q1.107-.812,2.249-1.575,2.715-1.815,5.6-3.355c1.883-1.009,3.814-1.948,5.786-2.77-.645.269.575-.226.754-.3q.713-.282,1.431-.551,1.536-.575,3.094-1.088a104.551,104.551,0,0,1,11.993-3.141q3.007-.61,6.043-1.08c.483-.075.967-.144,1.451-.214-.866.125.417-.053.675-.085q1.565-.19,3.134-.334a82.551,82.551,0,0,1,12.241-.24q1.7.1,3.4.278l.638.071c.321.037.954.117.292.028.569.076,1.136.165,1.7.258a63.229,63.229,0,0,1,6.8,1.5q1.712.478,3.393,1.057.957.328,1.9.69.318.122.634.246c.093.036,1.121.453.73.29s.308.134.306.133c.352.156.7.313,1.053.474q.847.39,1.682.8c1.208.6,2.392,1.243,3.561,1.915a4.5,4.5,0,1,0,4.543-7.771,68.9,68.9,0,0,0-27.026-8.678A92.82,92.82,0,0,0,154.8,65.9c-17.036,3-33.5,9.67-45.664,22.325a77.245,77.245,0,0,0-15.481,24.246c-.9,2.181.975,5.041,3.143,5.535,2.624.6,4.568-.807,5.535-3.143Z" transform="translate(-14.512 -50.177)"/>
  <path class="cls-1" d="M150.886,258.583c-1.277,17.462-1.284,35.583,6.533,51.68,6.883,14.173,20.04,24.614,34.893,29.444a68.609,68.609,0,0,0,28.132,2.836c2.334-.242,4.617-1.895,4.5-4.5-.1-2.229-1.992-4.76-4.5-4.5a68.461,68.461,0,0,1-11.71.236q-1.461-.1-2.919-.263l-.671-.079c-.022,0-.756-.1-.3-.038s-.272-.044-.294-.047c-.3-.047-.593-.093-.89-.142q-3-.5-5.939-1.286-2.826-.759-5.569-1.789-.631-.238-1.258-.49c-.209-.085-.418-.168-.626-.256.091.038.514.222.04.01-.854-.383-1.7-.775-2.54-1.194a59.789,59.789,0,0,1-8.762-5.449c-.411-.3.068.05.125.1-.155-.124-.311-.246-.466-.371q-.542-.435-1.072-.885-.984-.834-1.928-1.714-1.887-1.758-3.6-3.692c-.569-.645-1.117-1.305-1.657-1.973s.237.337-.266-.344c-.275-.372-.549-.744-.815-1.122a49.463,49.463,0,0,1-2.918-4.661q-.643-1.168-1.227-2.37c-.194-.4-.383-.8-.567-1.206-.092-.2-.181-.406-.272-.609q-.187-.433.015.054l-.169-.411q-1.085-2.685-1.919-5.456t-1.424-5.622q-.276-1.311-.5-2.632-.133-.77-.251-1.543c-.034-.226-.209-1.536-.118-.793-1.182-9.611-.8-19.288-.1-28.919a4.522,4.522,0,0,0-4.5-4.5,4.61,4.61,0,0,0-4.5,4.5Z" transform="translate(-14.512 -50.177)"/>
  <path class="cls-1" d="M97.334,238.172c4.024,18.313,20.114,31.936,38.287,35.019a55.364,55.364,0,0,0,16.535.4c2.325-.306,4.619-1.851,4.5-4.5-.1-2.175-2-4.829-4.5-4.5a52.256,52.256,0,0,1-13.224.072c.849.1-.465-.076-.708-.116q-.736-.122-1.471-.265-1.677-.329-3.327-.774-1.543-.418-3.057-.939-.705-.243-1.4-.507c-.265-.1-.529-.207-.794-.311-1.252-.5.4.206-.3-.126a53.7,53.7,0,0,1-5.754-3.061q-1.213-.768-2.371-1.619c-.154-.114-.306-.23-.461-.343.686.5.139.109,0,0-.445-.365-.89-.727-1.325-1.1a42.5,42.5,0,0,1-4.2-4.192q-.439-.506-.863-1.025c-.121-.148-.238-.3-.36-.447.54.654.107.144,0,0-.606-.82-1.192-1.653-1.742-2.513a39.969,39.969,0,0,1-3.04-5.722c.351.813.082.187.018.017-.113-.3-.229-.592-.339-.891q-.294-.805-.553-1.624c-.345-1.094-.632-2.2-.878-3.322a4.533,4.533,0,0,0-5.535-3.143,4.6,4.6,0,0,0-3.143,5.535Z" transform="translate(-14.512 -50.177)"/>
  <path class="cls-1" d="M134.655,345.77c.488-.849,1-1.683,1.547-2.5q.382-.569.785-1.125c.153-.212.309-.422.466-.63q-.4.51-.1.135a46.807,46.807,0,0,1,3.839-4.2q1-.95,2.057-1.83.454-.378.919-.742c-.775.607.529-.376.667-.474a40.837,40.837,0,0,1,4.705-2.88c.859-.448,1.736-.873,2.628-1.252-.713.3.631-.238.781-.294q.728-.273,1.467-.519a41.828,41.828,0,0,1,6.038-1.514c.161-.028,1.878-.256,1.008-.159.443-.05.885-.1,1.329-.136q1.554-.135,3.114-.152t3.117.081c.593.038,1.183.1,1.775.153q.819.1.129,0,.441.063.881.135c2.315.367,4.954-.592,5.535-3.143.492-2.157-.657-5.142-3.143-5.536a46.962,46.962,0,0,0-28.851,4.38,45.3,45.3,0,0,0-18.462,17.651,4.5,4.5,0,0,0,7.772,4.542Z" transform="translate(-14.512 -50.177)"/>
  <path class="cls-1" d="M299.084,206.852a21.424,21.424,0,0,0-5.616,7.552,70.947,70.947,0,0,0-3.745,9.212,69.351,69.351,0,0,0-3.321,19.4,68.745,68.745,0,0,0,21.635,51.8,4.5,4.5,0,0,0,6.364-6.363,64.787,64.787,0,0,1-5.694-6.067c-.153-.187-1.208-1.519-.684-.839q-.62-.8-1.209-1.631-1.3-1.816-2.475-3.719a65.109,65.109,0,0,1-3.825-7.161q-.21-.462-.414-.927c-.085-.2-.423-1.027-.1-.234-.254-.627-.5-1.255-.743-1.889q-.714-1.9-1.306-3.845a62.785,62.785,0,0,1-1.915-8.223c-.059-.363-.111-.728-.168-1.091.119.764,0,.021-.014-.116-.086-.731-.167-1.462-.232-2.195q-.213-2.418-.241-4.849a69.353,69.353,0,0,1,.5-8.809c-.089.768,0,.02.017-.116.066-.437.131-.873.2-1.309q.182-1.088.4-2.171.437-2.163,1.019-4.294.669-2.449,1.531-4.839c.275-.761.57-1.514.867-2.267.531-1.341-.357.764.232-.553.18-.4.358-.807.544-1.207a35.282,35.282,0,0,1,2.086-3.957c.212-.337.438-.664.665-.99-.44.632.1-.125.281-.326a13.388,13.388,0,0,1,1.727-1.614c1.858-1.463,1.647-4.853,0-6.364-1.971-1.809-4.381-1.561-6.364,0Z" transform="translate(-14.512 -50.177)"/>
  <path class="cls-1" d="M201.469,258.977q1.159-.559,2.331-1.093c.391-.177.784-.349,1.177-.522.817-.36.286-.127.109-.052,1.58-.668,3.184-1.282,4.8-1.856a96.479,96.479,0,0,1,19.144-4.655c-.987.134.42-.048.506-.059.355-.042.71-.083,1.066-.121q1.173-.128,2.35-.228,2.566-.216,5.141-.3a97.808,97.808,0,0,1,9.866.182q2.353.162,4.7.439c.284.033.567.069.851.1,1.405.172-.894-.146.5.071.99.153,1.979.3,2.965.477a91.374,91.374,0,0,1,18.206,5.183c-.949-.383.258.113.372.163q.718.319,1.43.657,1.064.508,2.1,1.066a38.728,38.728,0,0,1,4.3,2.672c.1.075,1.108.866.32.228.3.242.6.484.89.735.678.582,1.33,1.2,1.947,1.843.529.553,1.035,1.129,1.51,1.729-.634-.8.136.215.211.323.294.424.568.859.836,1.3a4.5,4.5,0,0,0,7.771-4.543c-3.542-5.84-9.077-10.1-15.169-13.04A85.054,85.054,0,0,0,261.9,243.17a103.384,103.384,0,0,0-42.444.214,100.185,100.185,0,0,0-22.529,7.822,4.524,4.524,0,0,0-1.614,6.157,4.616,4.616,0,0,0,6.157,1.614Z" transform="translate(-14.512 -50.177)"/>
  <path class="cls-1" d="M189,147.9c-3.746,8.416-5.809,17.939-4.644,27.165a29.128,29.128,0,0,0,4.661,12.988,48.359,48.359,0,0,0,8.738,9.491,99.3,99.3,0,0,0,22.38,13.932c3.714,1.747,7.468,3.421,11.057,5.418a52,52,0,0,1,5.157,3.248c.172.124,1.164.908.593.437.379.313.76.62,1.131.941q1.173,1.018,2.249,2.141.632.66,1.225,1.355.2.229.392.464c.065.078.733.925.4.5-.292-.382.111.153.137.19.2.274.4.547.588.824q.464.666.9,1.351a46.274,46.274,0,0,1,3.125,5.938c-.032-.071-.246-.615-.056-.132.125.318.256.634.379.952q.3.766.567,1.541.544,1.552,1,3.134a68.158,68.158,0,0,1,1.56,6.8c.416,2.322,3.37,3.844,5.535,3.143a4.623,4.623,0,0,0,3.143-5.536c-1.4-7.821-4.052-15.729-8.724-22.23a41.643,41.643,0,0,0-9.429-9.457,66.239,66.239,0,0,0-10.416-5.985c-7.478-3.606-15-6.974-21.843-11.735-.785-.546-1.557-1.109-2.323-1.681-.715-.533-.294-.221-.139-.1-.174-.135-.347-.273-.519-.41q-.69-.551-1.366-1.117a58.1,58.1,0,0,1-4.565-4.24c-.67-.7-1.319-1.414-1.938-2.158-.148-.178-.756-.963-.323-.384-.33-.44-.651-.886-.957-1.343a26.07,26.07,0,0,1-1.471-2.471c-.127-.243-.244-.49-.367-.735-.02-.04-.312-.656-.11-.214s-.072-.178-.089-.223c-.132-.348-.259-.7-.375-1.05a24.843,24.843,0,0,1-.862-3.454c-.039-.22-.073-.44-.109-.66.129.774-.021-.206-.036-.355q-.091-.891-.135-1.785a46.226,46.226,0,0,1,.214-7.2c.023-.225.049-.45.075-.675.164-1.419-.1.432.053-.374.11-.593.192-1.192.305-1.785q.337-1.779.806-3.531t1.063-3.461q.3-.856.627-1.7.123-.317.251-.632c-.286.709.257-.585.259-.589.955-2.146.695-4.937-1.614-6.157-1.959-1.035-5.135-.682-6.157,1.614Z" transform="translate(-14.512 -50.177)"/>
  <path class="cls-1" d="M191.535,182.08a58.9,58.9,0,0,0-45.443,19.41c-1.563,1.759-1.863,4.654,0,6.364,1.709,1.569,4.694,1.88,6.364,0a53.013,53.013,0,0,1,4.173-4.214q1.029-.925,2.106-1.8.307-.249.618-.493-.585.45.031-.018c.319-.234.635-.471.957-.7a57.763,57.763,0,0,1,10.145-5.73q.445-.192-.163.069c.244-.1.489-.2.734-.3q.737-.291,1.481-.56,1.3-.471,2.628-.877a54.617,54.617,0,0,1,5.564-1.387q.679-.132,1.362-.246c.188-.032,1.855-.273.76-.13q1.371-.178,2.753-.283a53.331,53.331,0,0,1,5.93-.111,4.536,4.536,0,0,0,4.5-4.5,4.592,4.592,0,0,0-4.5-4.5Z" transform="translate(-14.512 -50.177)"/>
  <path class="cls-1" d="M247.552,176.054c1.9-1.823,3.858-3.58,5.9-5.247q.743-.609,1.5-1.2c.7-.547.254-.194.1-.079.227-.172.453-.344.681-.514q1.71-1.275,3.48-2.465,3.181-2.136,6.561-3.959,1.686-.906,3.419-1.725.867-.408,1.744-.793c.1-.044.915-.39.441-.193-.378.158.711-.284.858-.342a64.636,64.636,0,0,1,8.05-2.585q2-.5,4.024-.863c.6-.108,1.2-.2,1.8-.3.922-.14.363-.05.161-.024.454-.057.907-.108,1.362-.154a55.482,55.482,0,0,1,8.423-.217c1.289.067,2.579.174,3.859.342-.773-.1.2.036.384.065q.526.084,1.051.178.938.171,1.868.376a50.847,50.847,0,0,1,6.555,1.925q.8.3,1.593.616c.218.088,1,.438.15.06.232.1.464.2.695.307q1.644.741,3.238,1.591a57.274,57.274,0,0,1,6,3.689q.625.438,1.237.893c-.014-.011.982.745.457.341-.44-.34.2.156.3.237q1.419,1.132,2.769,2.349a61.668,61.668,0,0,1,4.973,5.033c.717.814,1.4,1.652,2.085,2.5.773.957-.328-.459.116.148.15.206.307.408.458.613q.624.846,1.219,1.713a63.652,63.652,0,0,1,3.788,6.278q.9,1.7,1.7,3.451c.237.518.469,1.039.692,1.563-.311-.731.047.126.119.306q.24.594.469,1.193a73.883,73.883,0,0,1,2.632,8.361q.523,2.079.93,4.184.2,1.054.38,2.112.088.529.169,1.061c.022.146.194,1.359.132.89-.087-.653.089.743.082.681.041.355.081.711.118,1.067q.123,1.176.214,2.355.164,2.145.22,4.295a90.07,90.07,0,0,1-.227,9.014,4.522,4.522,0,0,0,4.5,4.5,4.61,4.61,0,0,0,4.5-4.5c1.629-22.033-4.762-45.216-20.684-61.073a61.56,61.56,0,0,0-26.23-15.68c-11.348-3.245-23.671-2.571-34.847,1.042-12.31,3.979-23.239,11.305-32.523,20.221a4.5,4.5,0,0,0,6.364,6.364Z" transform="translate(-14.512 -50.177)"/>
  <path class="cls-1" d="M292.964,148.293a56.741,56.741,0,0,1-3.5-11.007c-.087-.451-.165-.9-.237-1.358-.234-1.454.057.842-.076-.623-.082-.911-.148-1.823-.161-2.739a27.336,27.336,0,0,1,.095-2.745c.034-.4.191-1.371.031-.432.071-.416.141-.831.229-1.244q.227-1.065.554-2.1.165-.52.354-1.031c.4-1.094-.224.369.168-.437a30.079,30.079,0,0,1,2.185-3.732c-.584.862.069-.071.187-.208q.348-.4.719-.789a18.625,18.625,0,0,1,1.566-1.432c-.81.668.023,0,.225-.132.293-.2.593-.383.9-.558.359-.206.738-.373,1.1-.571q.449-.206-.259.1c.222-.088.447-.171.673-.248,2.213-.783,3.928-3.108,3.143-5.535-.707-2.185-3.16-3.984-5.536-3.143-7.424,2.628-12.629,9.157-14.494,16.721-2.132,8.649.116,17.617,3.462,25.639.9,2.164,3.02,3.957,5.536,3.143,2.08-.673,4.113-3.209,3.143-5.535Z" transform="translate(-14.512 -50.177)"/>
  <path class="cls-1" d="M348.54,190.991c.86-.454,1.726-.9,2.6-1.313q.709-.341,1.428-.662c.2-.092.411-.182.617-.272.693-.3-.532.214.169-.072a56.73,56.73,0,0,1,5.945-2.059,51.979,51.979,0,0,1,5.894-1.276c-.719.115.349-.041.569-.065q.774-.082,1.551-.134,1.551-.1,3.108-.087,1.446.018,2.889.15c.221.021.444.053.666.069.761.053-.645-.115.011,0,.421.071.842.134,1.261.215a31.414,31.414,0,0,1,4.944,1.377c.345.127.685.265,1.027.4-.821-.321.131.067.438.212q1.161.548,2.273,1.19,1.028.594,2.006,1.269c.3.207.592.424.887.638-.763-.554.271.229.507.43a27.064,27.064,0,0,1,1.968,1.864q.5.522.964,1.071c.218.256.8,1.074.305.355.546.794,1.1,1.57,1.572,2.41q.31.549.591,1.116c.107.216.2.439.311.653.309.6-.389-.986.041.1.867,2.18,3.047,3.948,5.536,3.143,2.112-.683,4.074-3.193,3.143-5.535a30.911,30.911,0,0,0-16.4-16.852c-8.413-3.71-17.616-4.021-26.507-1.893A64.1,64.1,0,0,0,344,183.219a4.538,4.538,0,0,0-1.614,6.157,4.6,4.6,0,0,0,6.157,1.615Z" transform="translate(-14.512 -50.177)"/>
  <path class="cls-1" d="M406.422,263.45a40.055,40.055,0,0,0,20.564-36.971c-.153-2.344-1.961-4.614-4.5-4.5-2.307.1-4.664,1.984-4.5,4.5a33.89,33.89,0,0,1-.019,4.8c-.033.429-.088.856-.125,1.285q-.062.508.042-.281c-.036.243-.073.487-.114.729q-.181,1.093-.433,2.172a35.5,35.5,0,0,1-1.4,4.591c-.131.346-.41,1.022-.1.3-.169.4-.347.79-.531,1.18q-.513,1.089-1.1,2.142a40.039,40.039,0,0,1-2.6,4.042c-.72.994.581-.687-.2.259-.235.284-.468.571-.709.852q-.843.979-1.756,1.9-.781.785-1.612,1.519-.414.366-.841.719-.285.236-.574.465.638-.489.031-.031a39.146,39.146,0,0,1-4.061,2.56,4.54,4.54,0,0,0-1.614,6.157,4.6,4.6,0,0,0,6.157,1.615Z" transform="translate(-14.512 -50.177)"/>
  <path class="cls-1" d="M247.6,411.339c15.761-4.035,31.676-9.141,43.82-20.474a103.064,103.064,0,0,0,15.651-19.431,100.98,100.98,0,0,0,11.279-23.029,86.711,86.711,0,0,0,4.319-29.486,4.5,4.5,0,0,0-9,0,84.21,84.21,0,0,1-.605,12.59s-.1.764-.042.329-.05.323-.051.327c-.071.462-.141.924-.217,1.385q-.268,1.614-.6,3.216-.639,3.088-1.514,6.122t-1.98,5.988c-.316.845-.648,1.684-.99,2.518s-.145.343-.067.162c-.089.205-.178.411-.268.615q-.315.717-.642,1.428a101.882,101.882,0,0,1-5.719,10.64c-2.06,3.361-4.285,6.623-6.638,9.785q-.461.618-.928,1.23c.395-.517-.262.335-.376.48q-.956,1.208-1.948,2.386c-1.275,1.511-2.6,2.98-3.987,4.39-1.333,1.356-2.721,2.657-4.171,3.887-.391.332-.788.655-1.185.978-.017.014-.583.464-.225.183s-.2.152-.22.167c-.793.593-1.6,1.17-2.419,1.724a68.934,68.934,0,0,1-9.8,5.449q-.772.355-1.552.694l-.586.253c.437-.186.189-.079-.1.039-.988.4-1.979.793-2.979,1.167-2,.749-4.031,1.439-6.072,2.085-4.153,1.314-8.36,2.445-12.579,3.525a4.5,4.5,0,0,0,2.392,8.678Z" transform="translate(-14.512 -50.177)"/>
  <path class="cls-1" d="M320.455,335.067a49.736,49.736,0,0,0,27.25-11.577c7.862-6.485,13.493-15.182,17.4-24.51a83.623,83.623,0,0,0,4.844-16.115c.455-2.3-.655-4.968-3.143-5.535-2.233-.509-5.047.673-5.536,3.143a84.649,84.649,0,0,1-3.753,13.377q-.3.787-.61,1.57-.158.39-.318.779c.292-.708.016-.04-.041.087-.511,1.153-1.038,2.3-1.6,3.424a63.325,63.325,0,0,1-3.318,5.828,46.582,46.582,0,0,1-18.521,16.85q-.8.4-1.611.766c-.24.108-.482.215-.724.319.908-.389-.3.11-.39.144q-1.658.643-3.365,1.145t-3.45.851c-.647.129-1.3.235-1.948.339.174-.028.9-.1.018,0-.394.042-.788.083-1.184.119-2.338.212-4.615,1.918-4.5,4.5.1,2.256,1.99,4.727,4.5,4.5Z" transform="translate(-14.512 -50.177)"/>
  <path class="cls-2" d="M205.319,146.223a4.5,4.5,0,1,0-4.5-4.5,4.55,4.55,0,0,0,4.5,4.5Z" transform="translate(-14.512 -50.177)"/>
  <path class="cls-1" d="M399.073,316.792c17.977-4.008,35.283-12.595,48.523-25.521,12.849-12.544,21.23-29.272,21.8-47.375a56.489,56.489,0,0,0-7.112-29.6,4.5,4.5,0,1,0-7.771,4.543c.5.886.985,1.783,1.433,2.7q.312.639.606,1.287c.112.246.221.494.329.742-.257-.594-.034-.076.09.237a49.589,49.589,0,0,1,1.941,5.968q.353,1.374.63,2.767.159.8.293,1.6c.046.276.257,1.739.136.812a54.994,54.994,0,0,1,.447,6.3,58.276,58.276,0,0,1-.234,6.127q-.065.714-.146,1.427c-.031.271-.065.543-.1.814.11-.863.019-.147-.009.022-.177,1.081-.353,2.16-.574,3.233a60.941,60.941,0,0,1-1.542,5.959q-.459,1.469-.994,2.912-.248.672-.513,1.339-.151.381-.307.76c.246-.6.022-.056-.11.242a65.264,65.264,0,0,1-5.839,10.449q-.822,1.2-1.694,2.374c-.158.212-.877,1.129-.359.48-.364.456-.725.914-1.1,1.365q-1.918,2.331-4.019,4.5-2.034,2.107-4.22,4.062-1.093.978-2.221,1.918-.525.44-1.059.87-.3.246-.612.49c-.083.065-.922.716-.472.371.4-.3-.121.091-.167.125-.209.157-.418.315-.627.47q-.552.41-1.109.81-1.275.916-2.58,1.789-2.529,1.689-5.166,3.21-2.885,1.665-5.879,3.127-1.715.837-3.46,1.61-.427.189-.855.374t0,0l-.431.179q-.864.357-1.732.7a105.309,105.309,0,0,1-15.614,4.758,4.536,4.536,0,0,0-3.143,5.536,4.6,4.6,0,0,0,5.536,3.143Z" transform="translate(-14.512 -50.177)"/>
  <path class="cls-1" d="M131.127,397.787c3.677,6.235,9.352,11.02,15.594,14.564a68.537,68.537,0,0,0,21.034,7.677,79.026,79.026,0,0,0,44.293-4.556,92.914,92.914,0,0,0,21.662-12.33c1.861-1.427,3.045-3.938,1.614-6.157-1.185-1.839-4.158-3.146-6.157-1.614a89.681,89.681,0,0,1-17.628,10.608c-.391.177-.785.348-1.178.521-1.289.569.8-.31-.506.213-.8.319-1.593.638-2.4.938q-2.41.9-4.873,1.648a77.365,77.365,0,0,1-10.013,2.326c-.424.069-.848.132-1.273.2-1.356.2.516-.044-.314.041-.8.083-1.6.184-2.4.256q-2.838.255-5.69.287a69.44,69.44,0,0,1-10.057-.595c.961.13-.469-.078-.538-.088q-.648-.1-1.3-.215-1.294-.228-2.578-.5-2.565-.552-5.083-1.3t-4.961-1.7c-.407-.158-.812-.322-1.217-.486.663.268-.023-.01-.132-.058-.934-.413-1.861-.838-2.776-1.291-1.616-.8-3.2-1.669-4.734-2.618q-1.2-.744-2.36-1.556c-.331-.232-.655-.472-.982-.709q-.62-.469-.048-.033c-.211-.166-.42-.335-.627-.5a35.362,35.362,0,0,1-3.775-3.588q-.4-.446-.785-.905-.256-.306-.5-.62.444.577-.02-.044c-.53-.773-1.052-1.54-1.528-2.348a4.5,4.5,0,0,0-7.772,4.543Z" transform="translate(-14.512 -50.177)"/>
  <path class="cls-1" d="M73.533,296.494a76.5,76.5,0,0,0-12.31,54.661c2.767,17.672,12.918,33.4,27.261,43.931A62.128,62.128,0,0,0,114.672,406.3c2.313.388,4.958-.608,5.536-3.143.5-2.176-.661-5.118-3.143-5.536a56.973,56.973,0,0,1-11.514-3.205c-.269-.106-1.54-.667-.6-.239-.384-.175-.774-.34-1.158-.516q-1.4-.64-2.767-1.354-2.654-1.386-5.163-3.025-1.142-.744-2.249-1.538c-.394-.283-.783-.573-1.173-.861-.671-.5-.081-.058.045.041-.287-.225-.572-.45-.855-.679q-2.268-1.829-4.362-3.859-2.16-2.093-4.119-4.379c-.594-.692-1.159-1.406-1.736-2.113.627.768-.234-.311-.4-.538q-.543-.732-1.065-1.479a62.648,62.648,0,0,1-5.832-10.286c-.1-.222-.194-.446-.293-.667-.274-.607.273.689.028.069-.156-.4-.319-.788-.473-1.184q-.62-1.6-1.149-3.241a63.129,63.129,0,0,1-1.668-6.237q-.338-1.576-.6-3.169-.131-.8-.239-1.594c.024.179.1.885.006,0-.036-.334-.076-.667-.111-1q-.343-3.31-.362-6.642-.02-3.231.259-6.455.069-.805.157-1.61c.031-.285.212-1.746.086-.81.152-1.137.34-2.269.55-3.4a75.648,75.648,0,0,1,4.159-14.165c.058-.145.335-.8.015-.047.132-.311.268-.62.405-.929q.369-.834.76-1.657.781-1.647,1.646-3.253a72.288,72.288,0,0,1,4.009-6.562,4.525,4.525,0,0,0-1.615-6.156,4.612,4.612,0,0,0-6.157,1.614Z" transform="translate(-14.512 -50.177)"/>
  <path class="cls-1" d="M47.034,283.005a94.7,94.7,0,0,1-5.346-17.159q-.416-1.982-.746-3.981c-.122-.74-.234-1.481-.341-2.224.114.789-.022-.173-.046-.365q-.1-.781-.182-1.565-.471-4.362-.538-8.756t.271-8.768c.116-1.5.274-2.987.456-4.476.016-.125.127-.882.018-.142.055-.371.108-.742.165-1.113q.188-1.224.408-2.441A95.326,95.326,0,0,1,45.3,216.656q.648-1.8,1.364-3.564c.126-.311.255-.619.382-.929.3-.725-.423.961.1-.22.269-.614.538-1.227.816-1.837q1.668-3.66,3.616-7.185a116.128,116.128,0,0,1,8.8-13.5c.09-.12.519-.676.034-.05q.311-.4.623-.794.564-.713,1.139-1.417,1.343-1.641,2.743-3.233,2.6-2.955,5.4-5.731,2.882-2.861,5.956-5.517,1.5-1.3,3.054-2.541c.183-.147,1.536-1.205.9-.719q1-.765,2.016-1.5a88.9,88.9,0,0,1,15.863-9.222c1.213-.545-.479.186.262-.117.448-.183.9-.366,1.346-.543q.966-.376,1.941-.725,2.144-.765,4.337-1.382,2.292-.642,4.628-1.107,1.119-.222,2.245-.4c.274-.043.548-.083.822-.124-1.01.149.693-.078.867-.1,2.332-.257,4.618-1.885,4.5-4.5-.1-2.217-1.994-4.776-4.5-4.5-23.408,2.581-43.84,17.5-58.487,35.288C41.209,198.532,31.686,220.711,30.88,244.23A98.471,98.471,0,0,0,38.356,285.4c.905,2.162,3.018,3.957,5.535,3.143,2.078-.673,4.116-3.211,3.143-5.536Z" transform="translate(-14.512 -50.177)"/>
  <path class="cls-1" d="M112.222,132.2a74.6,74.6,0,0,1,4.952-9.358q1.379-2.2,2.909-4.311.4-.546.8-1.084c.116-.154.233-.307.35-.461-.04.053-.435.547-.113.15.607-.748,1.2-1.5,1.829-2.238a76.4,76.4,0,0,1,7.259-7.447q1-.9,2.041-1.763.446-.37.894-.733c.21-.17,1.316-1.033.6-.488q2.066-1.581,4.235-3.018a73.309,73.309,0,0,1,9.226-5.195q.658-.311,1.323-.606c.209-.094.418-.185.627-.277,0,0,.688-.293.3-.132s.308-.124.306-.123c.283-.114.565-.228.849-.339q.744-.291,1.5-.566,3-1.1,6.1-1.925,2.979-.793,6.02-1.315c.525-.089,1.053-.163,1.578-.248s.032-.007-.065.006q.339-.043.68-.083,1.638-.19,3.283-.3a67.108,67.108,0,0,1,11.618.325c.147.016.885.115.086,0q.428.058.853.125.852.13,1.7.283,1.592.288,3.167.653a64.744,64.744,0,0,1,6.42,1.841q1.53.525,3.031,1.126l.6.242c-.589-.24.063.028.313.138q.69.3,1.374.623a64.778,64.778,0,0,1,6.074,3.26,4.5,4.5,0,1,0,4.542-7.771,69.612,69.612,0,0,0-50.113-8.437A77.96,77.96,0,0,0,118.5,106.371a78.789,78.789,0,0,0-14.05,21.29c-.95,2.147-.7,4.935,1.614,6.157,1.955,1.033,5.14.684,6.157-1.615Z" transform="translate(-14.512 -50.177)"/>
  <path class="cls-1" d="M454.508,191.847c.961.5,1.9,1.038,2.819,1.621q.6.38,1.177.782.332.229.657.466c.133.1.878.653.212.141a38.279,38.279,0,0,1,4.557,4.178q1.018,1.085,1.961,2.238c.167.205.33.412.5.618-.511-.633-.076-.1.019.03.349.478.7.954,1.036,1.441a52.412,52.412,0,0,1,3.437,5.762q.82,1.595,1.547,3.235c.091.2.18.41.269.615.3.693-.216-.535.068.165q.38.934.738,1.876c.82,2.166,1.542,4.369,2.2,6.591.7,2.383,1.333,4.789,1.86,7.218a63.769,63.769,0,0,1,1.1,6.486,53.721,53.721,0,0,1,.265,8.46q-.048.94-.135,1.878c-.029.314-.063.626-.1.939-.164,1.493.074-.411-.059.442a43.6,43.6,0,0,1-.932,4.426,4.5,4.5,0,1,0,8.679,2.393c2.846-10.792,1.479-22.057-1.449-32.676-2.711-9.832-6.718-19.391-13.444-27.173a42.835,42.835,0,0,0-12.44-9.923,4.5,4.5,0,0,0-4.542,7.771Z" transform="translate(-14.512 -50.177)"/>
  <path class="cls-1" d="M368.043,109.846a74.67,74.67,0,0,1,11.059.361c.485.053.968.112,1.452.171-.781-.095.188.029.46.07q1.446.219,2.883.493,2.67.508,5.3,1.208,2.727.725,5.395,1.651,1.284.445,2.551.936c.39.151.778.307,1.166.463.036.014.675.275.235.093-.492-.2.523.226.615.266a75.268,75.268,0,0,1,9.78,5.178q2.388,1.5,4.658,3.18c.178.132.986.741.421.307.331.255.658.517.983.779q1.17.942,2.3,1.932a70.772,70.772,0,0,1,7.954,8.176q.48.582.947,1.173c.013.016.443.578.176.226s.157.214.169.23c.6.809,1.185,1.623,1.749,2.455q1.634,2.408,3.041,4.958,1.353,2.453,2.485,5.02c.087.2.174.394.259.592-.076-.177-.288-.711.044.119.16.4.32.8.474,1.2q.54,1.409,1.013,2.842,1.013,3.07,1.718,6.232.329,1.473.589,2.959c.1.567.188,1.135.275,1.7.006.041.1.746.038.256-.063-.472.046.389.055.471a64.518,64.518,0,0,1,.185,13.122,4.518,4.518,0,0,0,4.5,4.5,4.617,4.617,0,0,0,4.5-4.5A68.649,68.649,0,0,0,434.317,132.2a79.239,79.239,0,0,0-66.274-31.351,4.5,4.5,0,0,0,0,9Z" transform="translate(-14.512 -50.177)"/>
  <path class="cls-1" d="M346.271,84.114a143.634,143.634,0,0,0-22.025-11.84,65.588,65.588,0,0,0-25.338-5.019,120.974,120.974,0,0,0-27.226,3.7,110.29,110.29,0,0,0-25.092,9.238,105.14,105.14,0,0,0-23.115,16.393,4.537,4.537,0,0,0,0,6.364,4.6,4.6,0,0,0,6.364,0q2.161-2.011,4.432-3.9,1.094-.908,2.213-1.783c-.575.451.5-.379.65-.493q.612-.46,1.23-.91A99.978,99.978,0,0,1,248.456,89.4q2.558-1.428,5.2-2.7,1.268-.612,2.551-1.185.69-.307,1.385-.606c-.1.042-.514.214-.015.008q.442-.183.886-.362a108.213,108.213,0,0,1,12.408-4.113c4.1-1.1,8.248-1.977,12.428-2.687q1.534-.261,3.074-.491c.562-.084,1.125-.167,1.689-.241-.108.014-.52.068.011,0q.483-.061.967-.118c2.164-.256,4.336-.45,6.513-.557,2.23-.11,4.466-.131,6.7-.031q1.541.068,3.074.216c.466.045.93.1,1.4.153.535.056-.007,0-.1-.015.364.053.728.108,1.091.168a62.349,62.349,0,0,1,11.33,3.019c1.013.37,2.015.767,3.014,1.176-.68-.278,0,0,.116.051.263.115.527.229.789.346q.787.351,1.568.716c1.952.914,3.873,1.894,5.766,2.923,3.9,2.119,7.686,4.442,11.437,6.815a4.541,4.541,0,0,0,6.157-1.615,4.6,4.6,0,0,0-1.615-6.157Z" transform="translate(-14.512 -50.177)"/>
  <path class="cls-1" d="M473.448,271.348c-.035.587-.077,1.172-.138,1.756-.03.29-.059.582-.1.871.111-.782,0-.037-.029.1-.233,1.211-.46,2.414-.778,3.606q-.446,1.668-1.035,3.292c-.17.472-.351.94-.537,1.406-.331.831-.124.287-.046.112-.174.392-.35.782-.534,1.17a46.544,46.544,0,0,1-3.378,5.936q-.49.732-1,1.449c-.078.108-1.073,1.442-.615.848-.759.984-1.563,1.936-2.386,2.867a87.6,87.6,0,0,1-10.3,9.732q-.642.523-1.292,1.038c-.217.171-.434.343-.653.512.6-.462.032-.028-.078.054-.944.7-1.892,1.4-2.861,2.071a66.852,66.852,0,0,1-5.818,3.611q-1.634.9-3.325,1.684c-.251.115-.5.226-.754.341-.754.349.211-.069-.258.114-.579.227-1.155.46-1.739.672a43.139,43.139,0,0,1-7.663,2.005c-2.329.386-3.837,3.39-3.143,5.535a4.63,4.63,0,0,0,5.536,3.143c10.107-1.675,19.02-7,26.957-13.25,8.012-6.307,15.58-13.829,20.171-23.05a45.369,45.369,0,0,0,4.8-17.625,4.528,4.528,0,0,0-4.5-4.5,4.6,4.6,0,0,0-4.5,4.5Z" transform="translate(-14.512 -50.177)"/>
</svg>
